<?xml version="1.0" encoding="iso-8859-1"?>
<!-- Generator: Adobe Illustrator 19.0.0, SVG Export Plug-In . SVG Version: 6.00 Build 0)  -->
<svg version="1.1" id="Capa_1" xmlns="http://www.w3.org/2000/svg" xmlns:xlink="http://www.w3.org/1999/xlink" x="0px" y="0px"
	 viewBox="0 0 512 512" style="enable-background:new 0 0 512 512;" xml:space="preserve">
<g>
	<path style="fill:#F44336;" d="M211.563,26.133c-1.971-2.993-5.313-4.796-8.896-4.8h-192C4.776,21.333,0,26.109,0,32v448
		c-0.001,5.07,3.566,9.439,8.533,10.453c0.702,0.141,1.417,0.213,2.133,0.213c4.255,0.015,8.111-2.5,9.813-6.4l192-448
		C213.909,32.951,213.564,29.138,211.563,26.133z"/>
	<path style="fill:#F44336;" d="M265.877,187.989c-1.632-4.021-5.537-6.653-9.877-6.656l0,0c-4.293-0.001-8.169,2.571-9.835,6.528
		l-85.333,202.667c-2.286,5.43,0.263,11.684,5.692,13.97c1.311,0.552,2.72,0.836,4.142,0.836h77.931l29.419,78.421
		c1.564,4.158,5.541,6.912,9.984,6.912h85.333c5.891-0.004,10.664-4.782,10.66-10.673c-0.001-1.373-0.267-2.732-0.783-4.004
		L265.877,187.989z"/>
	<path style="fill:#F44336;" d="M501.333,21.333h-192c-5.891-0.021-10.683,4.738-10.704,10.629c-0.005,1.481,0.298,2.947,0.89,4.304
		l192,448c1.702,3.9,5.559,6.415,9.813,6.4c0.716-0.001,1.431-0.072,2.133-0.213c4.967-1.014,8.534-5.384,8.533-10.453V32
		C512,26.109,507.224,21.333,501.333,21.333z"/>
</g>
<g>
</g>
<g>
</g>
<g>
</g>
<g>
</g>
<g>
</g>
<g>
</g>
<g>
</g>
<g>
</g>
<g>
</g>
<g>
</g>
<g>
</g>
<g>
</g>
<g>
</g>
<g>
</g>
<g>
</g>
</svg>
