<?xml version="1.0" encoding="utf-8"?>
<svg version="1.1" xmlns="http://www.w3.org/2000/svg" xmlns:xlink="http://www.w3.org/1999/xlink" viewBox="0 0 600 600">
    <defs>
        <linearGradient id="gradient" gradientTransform="rotate(90)">
            <stop offset="0%" stop-color="#578DFC"/>
            <stop offset="100%" stop-color="#074DCC"/>
        </linearGradient>
    </defs>
    <rect width="600" height="600" fill="url(#gradient)"/>
    <path transform="translate(105 85)" fill="white" d="M376.4,12.2c-3.7-3.7-8.1-5.6-13.1-5.6H26.7c-5.1,0-9.4,1.9-13.1,5.6C9.9,15.9,8,20.2,8,25.3
	v224.4c0,16.7,3.3,33.4,9.8,49.8c6.5,16.5,14.6,31.1,24.3,43.8c9.6,12.8,21.1,25.2,34.5,37.2c13.3,12.1,25.7,22.1,37,30.1
	c11.3,8,23.1,15.5,35.4,22.6c12.3,7.1,21,11.9,26.2,14.5c5.2,2.5,9.3,4.5,12.4,5.8c2.3,1.2,4.9,1.8,7.6,1.8c2.7,0,5.3-0.6,7.6-1.8
	c3.1-1.4,7.3-3.3,12.4-5.8c5.2-2.5,13.9-7.4,26.2-14.5c12.3-7.1,24.1-14.7,35.4-22.6c11.3-8,23.6-18,37-30.1
	c13.3-12.1,24.8-24.5,34.5-37.2c9.6-12.8,17.7-27.4,24.2-43.8c6.5-16.5,9.8-33.1,9.8-49.8V25.3C382,20.2,380.1,15.9,376.4,12.2z
	 M333,251.8C333,333,195,403,195,403V54.6h138C333,54.6,333,170.6,333,251.8z"/>
</svg>
