<?xml version="1.0" ?><svg id="Capa_1" style="enable-background:new 0 0 128 128;" version="1.1" viewBox="0 0 128 128" xml:space="preserve" xmlns="http://www.w3.org/2000/svg" xmlns:xlink="http://www.w3.org/1999/xlink"><style type="text/css">
	.st0{fill:#21A365;}
	.st1{fill:#107C41;}
	.st2{fill:#185B37;}
	.st3{fill:#33C481;}
	.st4{fill:#17864C;}
	.st5{fill:#FFFFFF;}
	.st6{fill:#036C70;}
	.st7{fill:#1A9BA1;}
	.st8{fill:#37C6D0;}
	.st9{fill:#04878B;}
	.st10{fill:#4F59CA;}
	.st11{fill:#7B82EA;}
	.st12{fill:#4C53BB;}
	.st13{fill:#0F78D5;}
	.st14{fill:#29A7EB;}
	.st15{fill:#0358A8;}
	.st16{fill:#0F79D6;}
	.st17{fill:#038387;}
	.st18{fill:#048A8E;}
	.st19{fill:#C8421D;}
	.st20{fill:#FF8F6A;}
	.st21{fill:#ED6B47;}
	.st22{fill:#891323;}
	.st23{fill:#AF2131;}
	.st24{fill:#C94E60;}
	.st25{fill:#E08195;}
	.st26{fill:#B42839;}
	.st27{fill:#0464B8;}
	.st28{fill:#0377D4;}
	.st29{fill:#4FD8FF;}
	.st30{fill:#1681D7;}
	.st31{fill:#0178D4;}
	.st32{fill:#042071;}
	.st33{fill:#168FDE;}
	.st34{fill:#CA64EA;}
	.st35{fill:#7E1FAF;}
	.st36{fill:#AE4BD5;}
	.st37{fill:#9332BF;}
	.st38{fill:#7719AA;}
	.st39{fill:#0078D4;}
	.st40{fill:#1490DF;}
	.st41{fill:#0364B8;}
	.st42{fill:#28A8EA;}
	.st43{fill:#41A5ED;}
	.st44{fill:#2C7BD5;}
	.st45{fill:#195ABE;}
	.st46{fill:#103E91;}
	.st47{fill:#2166C3;}
	.st48{opacity:0.2;}
</style><rect class="st0" height="29.8" width="49.3" x="78.7" y="34.2"/><rect class="st1" height="29.8" width="49.3" x="78.7" y="64"/><rect class="st1" height="29.8" width="49.2" x="29.5" y="34.2"/><path class="st2" d="M78.7,93.8V64H29.6v29.8v4.3v19.6c0,3.2,2.6,5.8,5.8,5.8h86.7c3.2,0,5.8-2.6,5.8-5.8V93.8H78.7z"/><path class="st3" d="M122.1,4.5H78.6v29.8h49.4V10.3C127.9,7.1,125.3,4.5,122.1,4.5z"/><path class="st0" d="M78.7,4.5H35.5c-3.2,0-5.8,2.6-5.8,5.8v23.9h49.1V4.5z"/><path class="st4" d="M59.5,96.5h-53c-3.5,0-6.4-2.9-6.4-6.4V37.9c0-3.5,2.9-6.4,6.4-6.4h53c3.5,0,6.4,2.9,6.4,6.4v52.2  C65.9,93.6,63.1,96.5,59.5,96.5z"/><g><path class="st5" d="M40.5,82.4l-3.9-7.1c-1.6-2.8-2.6-4.7-3.7-6.8h-0.1c-0.9,2.1-1.8,4-3.3,6.8L26,82.4h-7.6l10.8-18.1L18.7,46.5   h7.7l3.9,7.4c1.2,2.2,2.1,4,3,6h0.2c1-2.2,1.7-3.8,2.9-6l3.9-7.4h7.6L37.2,64l11.1,18.4H40.5z"/></g><path class="st48" d="M66.7,37.3c0,0.2,0,0.4,0,0.6v52.2c0,3.5-2.9,6.4-6.4,6.4H30.4v5.7h35.2c3.5,0,6.4-2.9,6.4-6.4V43.6  C72.1,40.4,69.7,37.7,66.7,37.3z"/></svg>