<svg height="512pt" viewBox="0 0 512 512" width="512pt" xmlns="http://www.w3.org/2000/svg" xmlns:xlink="http://www.w3.org/1999/xlink"><linearGradient id="a"><stop offset="0" stop-color="#ff5e50"/><stop offset=".249" stop-color="#fe5c6c"/><stop offset=".3765" stop-color="#e3658a"/><stop offset=".497" stop-color="#b87eb0"/><stop offset=".6267" stop-color="#916cff"/><stop offset=".7628" stop-color="#70bcfb" stop-opacity=".917647"/><stop offset="1" stop-color="#21c7fe"/></linearGradient><linearGradient id="b" gradientTransform="matrix(2.8346 0 0 -2.8346 -2983.6272 5210.2773)" gradientUnits="userSpaceOnUse" x1="1092.0836" x2="1194.8329" xlink:href="#a" y1="1813.7263" y2="1680.365"/><linearGradient id="c" gradientTransform="matrix(2.8346 0 0 -2.8346 -2983.6272 5210.2773)" gradientUnits="userSpaceOnUse" x1="1091.8068" x2="1194.556" xlink:href="#a" y1="1813.5131" y2="1680.1516"/><path d="m256 0c-141.386719 0-256 114.613281-256 256s114.613281 256 256 256 256-114.613281 256-256-114.613281-256-256-256zm0 490.496094c-129.507812 0-234.496094-104.988282-234.496094-234.496094s104.988282-234.496094 234.496094-234.496094 234.496094 104.988282 234.496094 234.496094-104.988282 234.496094-234.496094 234.496094zm0 0" fill="url(#b)"/><path d="m340.269531 376.832031c15.027344-4.511719 25.636719-15.449219 29.984375-30.902343l1.277344-4.546876.167969-121.835937c.128906-91.242187.007812-122.40625-.488281-124.105469-.523438-1.800781-1.347657-3.316406-2.433594-4.511718-1.585938-1.003907-3.5-1.53125-5.664063-1.53125-1.496093 0-6.683593.738281-11.523437 1.640624-21.414063 3.988282-147.636719 29.71875-149.789063 30.53125-3.335937 1.261719-6.640625 4.261719-8.207031 7.445313l-1.328125 2.695313s-.625 190.96875-1.59375 193.121093c-1.472656 3.269531-4.734375 6.371094-7.742187 7.359375-1.425782.46875-7.066407 1.761719-12.535157 2.875-25.324219 5.160156-34.730469 8.875-42.6875 16.867188-4.515625 4.539062-7.863281 10.734375-9.3125 17.238281-1.378906 6.214844-.917969 15.515625 1.054688 21.167969 2.0625 5.917968 5.386719 10.96875 9.734375 14.941406 3.949218 3.117188 8.613281 5.4375 13.855468 6.808594 11.59375 3.039062 33.292969-.339844 44.394532-6.90625 4.636718-2.746094 10.605468-8.511719 13.710937-13.25 1.226563-1.871094 3.078125-5.652344 4.109375-8.390625 3.613282-9.605469 3.726563-180.6875 4.191406-182.84375.78125-3.652344 3.222657-6.332031 6.589844-7.238281 3.03125-.816407 124.570313-25.410157 127.988282-25.898438 3.011718-.429688 5.855468.5625 7.40625 2.515625.921874.507813 1.695312 1.191406 2.242187 2.027344.984375 1.503906 1.046875 4.480469 1.191406 58.644531.171875 62.34375.242188 60.882812-3.066406 64.816406-2.40625 2.863282-5.417969 3.96875-17.769531 6.546875-18.792969 3.925781-25.226563 5.792969-32.421875 9.390625-8.988281 4.492188-13.980469 9.414063-17.835938 17.589844-2.730469 5.785156-3.75 10.121094-3.742187 15.878906.019531 10.292969 3.488281 18.335938 11.316406 26.210938.71875.722656 1.429688 1.398437 2.140625 2.035156 3.945313 3.117188 7.964844 4.996094 13.019531 6.1875 7.625 1.796875 23.144532.613281 33.765625-2.574219zm0 0" fill="url(#c)"/></svg>