<?xml version="1.0" encoding="utf-8"?>
<!-- Generator: Adobe Illustrator 23.0.3, SVG Export Plug-In . SVG Version: 6.00 Build 0)  -->
<svg version="1.1" id="Layer_1" xmlns="http://www.w3.org/2000/svg" xmlns:xlink="http://www.w3.org/1999/xlink" x="0px" y="0px"
	 width="340px" height="333.1px" viewBox="0 0 340 333.1" style="enable-background:new 0 0 340 333.1;"
	 xml:space="preserve">
<style type="text/css">
	.st0{fill:#FFFFFF;}
	.st1{fill:#FF6C37;}
</style>
<title>hor-white-logo</title>
<g>
	<g id="Layer_2-2">
		<path class="st0" d="M1096,114.7c-2.6-1.5-5.8-1.5-8.5,0c-1.1,0.6-1.8,1.8-1.9,3.1v73.5l-35.7-69.9c-0.9-2.2-2.3-4.2-4-5.9
			c-1.4-1.2-3.2-1.8-5.1-1.8c-4.1,0-6,1.4-6,4.2v96c-0.1,1.3,0.6,2.5,1.8,3.2c2.6,1.6,5.9,1.6,8.5,0c1.1-0.6,1.8-1.9,1.8-3.2V141
			l37.2,72.1c1.2,3.2,4.2,5.3,7.5,5.5c1.5,0,3-0.4,4.3-1.2c1.1-0.7,1.8-1.9,1.8-3.2v-96.4C1097.7,116.5,1097.1,115.4,1096,114.7z"/>
		<path class="st1" d="M261.8,83.7c-0.9,0.4-1.4,1.5-1,2.4c0,0.1,0.1,0.1,0.1,0.2c1,2,0.8,4.5-0.7,6.2c-0.7,0.7-0.8,1.9-0.1,2.6
			c0,0,0,0,0.1,0.1c0.4,0.1,0.9,0.1,1.3,0c0.5,0,1.1-0.3,1.4-0.7c2.5-2.9,3-7,1.2-10.4C263.6,83.4,262.6,83.2,261.8,83.7z"/>
		<path class="st1" d="M187.7,1.4C96.5-10.4,13.1,54.1,1.4,145.3S54.1,320,145.3,331.7S319.9,279,331.7,187.8
			C343.4,96.6,279,13.1,187.7,1.4C187.8,1.4,187.8,1.4,187.7,1.4z M222,105.2c-3.1,0.1-6,1.3-8.2,3.5L152,170.5l-13.2-13.2
			C199.6,96.6,210.7,96,222,105.2z M154.5,172.7l61.6-61.2c3.4-3.3,8.8-3.3,12.2,0c1.7,1.7,2.6,4,2.5,6.3c-0.1,2.4-1.1,4.6-2.9,6.2
			l-65.1,57.4L154.5,172.7z M159.1,182l-15.3,3.9c-0.3,0.2-0.6,0.2-0.9,0c-0.2-0.3-0.2-0.7,0-1l9.3-9.3L159.1,182z M120.1,175.6
			l16.3-16.3l12.3,12.6l-27.9,6c-0.6,0.1-1.2-0.3-1.3-0.9c-0.1-0.4,0-0.7,0.3-1L120.1,175.6z M69.6,260.3c-0.4-0.1-0.8-0.4-0.9-0.7
			c-0.1-0.4-0.1-0.8,0-1.1l13.1-13.2l17,16.9L69.6,260.3z M103.2,242.8L103.2,242.8c-1.3,0.7-2,2.1-1.7,3.5l2.8,12
			c0.2,0.8-0.2,1.6-0.8,2c-0.6,0.5-1.5,0.5-2,0l-17-17.5l52.2-52.3l25.3-5.4l12.1,12.1c-21.6,18-45.4,33.3-70.8,45.4v0.2H103.2z
			 M176.6,195.2L165,183.6l65.1-57.3c0.6-0.5,1.2-1.1,1.7-1.8C229.7,143.1,203.5,169.5,176.6,195.2z M227.4,105.5
			c-9.7-10.1-9.3-26.1,0.8-35.8c9.2-8.8,23.4-9.4,33.3-1.4l-22.4,22.3c-0.6,0.7-0.6,1.7,0,2.4l17.4,17.3c-9.8,4.8-21.6,2.8-29.2-5
			L227.4,105.5z M263.1,105.5c-1.2,1.1-2.4,2.2-3.8,3.1l-16.7-16.7l21.3-21.3C273.1,80.5,272.8,95.9,263.1,105.5z"/>
	</g>
</g>
</svg>
