<?xml version="1.0" ?><!DOCTYPE svg  PUBLIC '-//W3C//DTD SVG 1.1//EN'  'http://www.w3.org/Graphics/SVG/1.1/DTD/svg11.dtd'><svg height="512px" style="enable-background:new 0 0 512 512;" version="1.1" viewBox="0 0 512 512" width="512px" xml:space="preserve" xmlns="http://www.w3.org/2000/svg" xmlns:xlink="http://www.w3.org/1999/xlink"><g id="_x31_4-utorrent"><g><g><path d="M471.725,327.838c-15.479,0.146-27.766-1.08-36.568-3.592     c-26.602-7.626-34.832-18.539-34.832-18.539c-1.879-2.81-5.162-4.337-8.531-3.864c-3.344,0.456-6.145,2.754-7.219,5.962     c-0.117,0.353-12.643,36.692-44.17,52.479c-32.721,16.414-92.039,12.412-92.635,12.378c-3.225-0.294-6.084,1.202-7.846,3.742     c-1.791,2.548-2.115,5.832-0.869,8.674l45.518,103.409c1.434,3.263,4.621,5.297,8.08,5.297c0.449,0,0.922-0.029,1.406-0.121     c85.059-13.691,156.342-72.673,186.053-153.924c1.008-2.719,0.594-5.771-1.074-8.159     C477.363,329.243,474.439,327.653,471.725,327.838L471.725,327.838z M471.725,327.838" style="fill:#5ACF5F;"/><path d="M256.002,18.217c-131.561,0-238.605,107.335-238.605,239.251     c0,104.583,69.643,198.756,169.378,229.018c0.834,0.267,1.695,0.394,2.568,0.394c2.443,0,4.801-1.019,6.496-2.879     c2.299-2.509,2.955-6.093,1.703-9.268C103.501,236.981,86.472,181.657,83.787,168.916c12.68-6.698,55.147-15.971,66.422-14.118     c3.313,4.759,10.171,21.568,16.256,36.514c23.114,56.708,58.042,142.418,106.567,145.885     c34.443,2.481,65.436-10.616,83.184-34.958c10.768-14.805,14.432-31.523,9.6-43.638c-7.367-18.421-41.277-96.024-53.33-123.57     l53.152-13.336c11.602,27.665,53.686,126.386,73.551,150.31c8.676,10.407,23.594,16.804,44.322,18.96     c4.916,0.417,9.182-3.022,9.691-7.869c0.953-8.433,1.402-17.078,1.402-25.627C494.604,125.552,387.561,18.217,256.002,18.217     L256.002,18.217z M256.002,18.217" style="fill:#5ACF5F;"/></g></g></g><g id="Layer_1"/></svg>