<svg width="144" height="32" viewBox="0 0 144 32" fill="none" xmlns="http://www.w3.org/2000/svg">
<path fill-rule="evenodd" clip-rule="evenodd" d="M17 0H15V13.586L5.39322 3.97919L3.979 5.3934L13.5856 15H0V17H13.5855L3.97885 26.6066L5.39307 28.0208L15 18.4139V32H17V18.4144L26.6064 28.0208L28.0206 26.6066L18.414 17H32V15H18.4139L28.0205 5.3934L26.6063 3.97918L17 13.5855V0Z" fill="rgba(130, 116, 149, 0.48)" fill-opacity="0.4"/>
<path fill-rule="evenodd" clip-rule="evenodd" d="M73 0H71V13.586L61.3932 3.97919L59.979 5.3934L69.5856 15H56V17H69.5855L59.9789 26.6066L61.3931 28.0208L71 18.4139V32H73V18.4144L82.6064 28.0208L84.0206 26.6066L74.414 17H88V15H74.4139L84.0205 5.3934L82.6063 3.97918L73 13.5855V0Z" fill="rgba(130, 116, 149, 0.48)" fill-opacity="0.4"/>
<path fill-rule="evenodd" clip-rule="evenodd" d="M129 0H127V13.586L117.393 3.97919L115.979 5.3934L125.586 15H112V17H125.585L115.979 26.6066L117.393 28.0208L127 18.4139V32H129V18.4144L138.606 28.0208L140.021 26.6066L130.414 17H144V15H130.414L140.02 5.3934L138.606 3.97918L129 13.5855V0Z" fill="rgba(130, 116, 149, 0.48)" fill-opacity="0.4"/>
</svg>
