<svg width="48" height="51" viewBox="0 0 48 51" fill="none" xmlns="http://www.w3.org/2000/svg">
<path d="M39.0508 6.216C38.8362 6.21604 38.6251 6.16122 38.437 6.05663C33.8889 3.72562 28.8629 2.51103 23.7655 2.51103C18.6681 2.51103 13.6422 3.72562 9.09404 6.05663C8.7872 6.21546 8.4327 6.25201 8.10055 6.15906C7.7684 6.06612 7.48273 5.85044 7.29994 5.5546C7.21998 5.40952 7.16993 5.24951 7.15285 5.08426C7.13577 4.91902 7.152 4.75198 7.20056 4.59327C7.24912 4.43457 7.329 4.2875 7.43535 4.16098C7.54171 4.03447 7.67233 3.93115 7.81929 3.85728C12.7514 1.32814 18.201 0.00694762 23.7294 2.73269e-05C29.2577 -0.00689297 34.7105 1.30066 39.6488 3.81743C39.8009 3.88558 39.9371 3.98529 40.0487 4.11012C40.1603 4.23495 40.2449 4.38212 40.2968 4.5421C40.3487 4.70209 40.3669 4.87133 40.3501 5.03887C40.3334 5.20642 40.2821 5.36855 40.1996 5.51476C40.0873 5.72481 39.9216 5.9006 39.7195 6.02391C39.5175 6.14721 39.2866 6.21354 39.0508 6.216ZM1.34322 19.4201C1.06455 19.4205 0.791556 19.3403 0.556334 19.189C0.416641 19.0994 0.296804 18.9815 0.20439 18.8427C0.111976 18.7038 0.048992 18.5471 0.0194147 18.3823C-0.0101625 18.2176 -0.00569054 18.0484 0.0325484 17.8855C0.0707873 17.7226 0.141962 17.5695 0.24158 17.4359C2.84057 13.9288 6.23617 11.1079 10.1406 9.21223C14.3928 7.20061 19.0289 6.15805 23.7222 6.15805C28.4155 6.15805 33.0517 7.20061 37.3039 9.21223C41.1932 11.0887 44.5822 13.8812 47.1872 17.3562C47.2866 17.491 47.3574 17.6452 47.3951 17.809C47.4328 17.9729 47.4366 18.1428 47.4063 18.3082C47.376 18.4737 47.3123 18.6309 47.219 18.7702C47.1258 18.9094 47.0051 19.0276 46.8645 19.1173C46.572 19.3076 46.219 19.3781 45.877 19.3145C45.5351 19.2508 45.2298 19.0578 45.0232 18.7746C42.6706 15.6262 39.6083 13.0934 36.0921 11.3877C32.2152 9.55502 27.9888 8.60526 23.7104 8.60526C19.432 8.60526 15.2056 9.55502 11.3288 11.3877C7.79824 13.1282 4.73044 15.6994 2.38191 18.8862C2.27098 19.0585 2.11748 19.1984 1.93666 19.2921C1.75583 19.3857 1.55396 19.4299 1.35109 19.4201H1.34322ZM17.8127 49.7728C17.6406 49.7746 17.4699 49.7416 17.3105 49.676C17.1511 49.6103 17.0062 49.5132 16.8842 49.3903C14.7624 47.4976 12.9742 45.2529 11.5963 42.7524C9.71987 39.435 8.7629 35.6659 8.8265 31.8433C8.8265 24.3766 15.515 18.2965 23.7773 18.2965C32.0396 18.2965 38.6494 24.3527 38.6494 31.8433C38.6494 32.1983 38.5102 32.5389 38.2623 32.7899C38.0143 33.041 37.6781 33.182 37.3275 33.182C36.9769 33.182 36.6406 33.041 36.3927 32.7899C36.1448 32.5389 36.0055 32.1983 36.0055 31.8433C36.0055 25.7472 30.4973 20.7907 23.7458 20.7907C16.9944 20.7907 11.4626 25.7472 11.4626 31.8433C11.4013 35.2325 12.2469 38.5753 13.9098 41.5173C15.1904 43.8049 16.8393 45.8598 18.7885 47.5974C18.9077 47.7134 19.0026 47.8526 19.0674 48.0066C19.1322 48.1607 19.1656 48.3264 19.1656 48.4938C19.1656 48.6613 19.1322 48.827 19.0674 48.9811C19.0026 49.1351 18.9077 49.2743 18.7885 49.3903C18.5158 49.6268 18.1715 49.7617 17.8127 49.7728ZM36.698 45.1111C33.8193 45.1856 30.9813 44.4104 28.5301 42.8799C26.6454 41.7289 25.0795 40.1129 23.9786 38.1828C22.8778 36.2528 22.2779 34.0717 22.235 31.8433C22.235 31.4903 22.3735 31.1519 22.6199 30.9023C22.8664 30.6527 23.2006 30.5125 23.5491 30.5125C23.8976 30.5125 24.2319 30.6527 24.4783 30.9023C24.7248 31.1519 24.8632 31.4903 24.8632 31.8433C24.8994 33.6539 25.3901 35.4254 26.289 36.991C27.1879 38.5566 28.4656 39.8647 30.0016 40.7921C32.0142 42.0353 34.3418 42.6557 36.698 42.5771C37.6155 42.5624 38.5307 42.4798 39.4363 42.3301C39.6064 42.2915 39.7823 42.2876 39.9539 42.3185C40.1255 42.3495 40.2893 42.4147 40.4358 42.5104C40.5822 42.606 40.7084 42.7302 40.807 42.8758C40.9056 43.0213 40.9747 43.1852 41.0101 43.358C41.0367 43.5264 41.0295 43.6985 40.9889 43.864C40.9482 44.0296 40.875 44.1851 40.7736 44.3212C40.6722 44.4574 40.5447 44.5714 40.3988 44.6565C40.2528 44.7416 40.0914 44.7959 39.9242 44.8163C38.8845 44.9999 37.832 45.0985 36.7767 45.1111H36.698ZM31.4101 50.2988C31.2926 50.2977 31.1759 50.2789 31.0639 50.243C27.3889 49.4143 24.0037 47.5943 21.2672 44.9757C19.4681 43.3063 18.0303 41.2775 17.0443 39.0172C16.0584 36.757 15.5457 34.3143 15.5386 31.8433C15.5386 27.7713 19.1819 24.4404 23.6593 24.4404C28.1367 24.4404 31.7721 27.7713 31.7721 31.8433C31.7721 34.5208 34.2193 36.7201 37.2803 36.7201C40.3413 36.7201 42.7885 34.5208 42.7885 31.8433C42.7885 22.3526 34.2193 14.6628 23.6908 14.6628C16.2075 14.6628 9.35371 18.6472 6.26912 24.799C5.20181 26.988 4.66246 29.4022 4.69535 31.8433C4.68745 34.9575 5.28921 38.0424 6.46584 40.9196C6.52331 41.0762 6.54838 41.2432 6.53948 41.41C6.53058 41.5769 6.48792 41.7401 6.41413 41.8895C6.34034 42.039 6.237 42.1715 6.11054 42.2788C5.98407 42.3861 5.83717 42.4659 5.67896 42.5133C5.35601 42.6441 4.99546 42.6424 4.67376 42.5085C4.35205 42.3746 4.09449 42.1191 3.95568 41.7962C2.70371 38.631 2.06006 35.2529 2.05929 31.8433C2.01196 29.0214 2.62401 26.2281 3.84551 23.6913C7.34715 16.6789 15.1216 12.1288 23.6278 12.1288C35.6121 12.1288 45.3537 20.9501 45.3537 31.8194C45.3537 35.8914 41.7262 39.2063 37.2409 39.2063C32.7557 39.2063 29.136 35.8914 29.136 31.8194C29.136 29.126 26.6809 26.9425 23.6278 26.9425C20.5747 26.9425 18.1196 29.126 18.1196 31.8194C18.126 33.957 18.573 36.0698 19.4321 38.0224C20.2911 39.975 21.5433 41.7245 23.1085 43.1588C25.5066 45.4724 28.4832 47.0788 31.717 47.8046C31.8784 47.841 32.031 47.9098 32.1656 48.0071C32.3003 48.1043 32.4143 48.2279 32.5009 48.3706C32.5875 48.5133 32.6449 48.6721 32.6697 48.8377C32.6946 49.0033 32.6863 49.1722 32.6455 49.3345C32.5717 49.6098 32.411 49.853 32.1879 50.027C31.9649 50.2011 31.6917 50.2966 31.4101 50.2988Z" fill="rgba(130, 116, 149, 0.4)" fill-opacity="0.32"/>
</svg>
