<svg width="40" height="40" viewBox="0 0 40 40" fill="none" xmlns="http://www.w3.org/2000/svg">
<path d="M37.3736 13.5741C36.5522 11.5975 34.8858 9.46338 33.581 8.78874C34.5117 10.5912 35.1575 12.527 35.4956 14.5273L35.499 14.559C33.3614 9.22972 29.7366 7.08094 26.7761 2.40191C26.6263 2.16533 26.4766 1.92825 26.3307 1.67801C26.2473 1.53508 26.1805 1.4063 26.1224 1.28777C25.9996 1.04999 25.905 0.798696 25.8405 0.538986C25.8405 0.527002 25.8362 0.515405 25.8283 0.506408C25.8204 0.497411 25.8094 0.491643 25.7975 0.490206C25.7859 0.487009 25.7736 0.487009 25.7619 0.490206C25.7595 0.490206 25.7556 0.494596 25.7527 0.495571C25.7497 0.496547 25.7434 0.500937 25.739 0.502888L25.7463 0.490206C20.9975 3.27069 19.3863 8.41801 19.238 10.9926C17.3416 11.123 15.5284 11.8218 14.0351 12.998C13.8793 12.866 13.7165 12.7426 13.5473 12.6283C13.1165 11.1204 13.0981 9.52463 13.4941 8.00728C11.7502 8.85212 10.2006 10.0497 8.94339 11.5244H8.93461C8.18534 10.5746 8.23802 7.44289 8.28095 6.78874C8.05929 6.87783 7.8477 6.99016 7.64973 7.12387C6.98829 7.59594 6.36994 8.12565 5.80193 8.70679C5.15466 9.36305 4.56349 10.0724 4.03461 10.8273V10.8302V10.8268C2.81912 12.55 1.957 14.4969 1.49803 16.5551L1.47266 16.68C1.43705 16.8463 1.30876 17.6795 1.28681 17.8605C1.28681 17.8746 1.28388 17.8878 1.28242 17.9019C1.11692 18.7621 1.01437 19.6332 0.975586 20.5083V20.6058C0.979731 25.3396 2.7595 29.8996 5.96315 33.3847C9.16681 36.8697 13.5612 39.0262 18.278 39.4279C22.9947 39.8296 27.6905 38.4473 31.4374 35.5543C35.1842 32.6612 37.7095 28.4678 38.5141 23.8029C38.5458 23.559 38.5717 23.3175 38.6 23.0712C38.9894 19.8528 38.5678 16.588 37.3736 13.5741ZM15.5834 28.3731C15.6717 28.4156 15.7546 28.4614 15.8453 28.5019L15.8585 28.5102C15.7668 28.4663 15.6751 28.4206 15.5834 28.3731ZM35.5005 14.5634V14.5453L35.5039 14.5653L35.5005 14.5634Z" fill="url(#paint0_linear)"/>
<path d="M37.3736 13.5742C36.5522 11.5976 34.8858 9.46346 33.581 8.78883C34.5117 10.5913 35.1575 12.5271 35.4956 14.5274V14.5454L35.499 14.5654C36.9562 18.7354 36.7454 23.3072 34.9107 27.3254C32.7439 31.9747 27.499 36.74 19.2892 36.5083C10.4185 36.2571 2.60632 29.6747 1.14583 21.0532C0.879976 19.6937 1.14583 19.0044 1.27949 17.8996C1.09716 18.7578 0.995417 19.6312 0.975586 20.5083V20.6059C0.979731 25.3397 2.7595 29.8997 5.96315 33.3848C9.16681 36.8698 13.5612 39.0263 18.278 39.428C22.9947 39.8297 27.6905 38.4474 31.4374 35.5543C35.1842 32.6613 37.7095 28.4679 38.5141 23.803C38.5458 23.5591 38.5717 23.3176 38.6 23.0713C38.9894 19.8528 38.5678 16.5881 37.3736 13.5742Z" fill="url(#paint1_radial)"/>
<path d="M37.3736 13.5742C36.5522 11.5976 34.8858 9.46346 33.581 8.78883C34.5117 10.5913 35.1575 12.5271 35.4956 14.5274V14.5454L35.499 14.5654C36.9562 18.7354 36.7454 23.3072 34.9107 27.3254C32.7439 31.9747 27.499 36.74 19.2892 36.5083C10.4185 36.2571 2.60632 29.6747 1.14583 21.0532C0.879976 19.6937 1.14583 19.0044 1.27949 17.8996C1.09716 18.7578 0.995417 19.6312 0.975586 20.5083V20.6059C0.979731 25.3397 2.7595 29.8997 5.96315 33.3848C9.16681 36.8698 13.5612 39.0263 18.278 39.428C22.9947 39.8297 27.6905 38.4474 31.4374 35.5543C35.1842 32.6613 37.7095 28.4679 38.5141 23.803C38.5458 23.5591 38.5717 23.3176 38.6 23.0713C38.9894 19.8528 38.5678 16.5881 37.3736 13.5742Z" fill="url(#paint2_radial)"/>
<path d="M28.1863 15.7965C28.2273 15.8253 28.2654 15.8541 28.3039 15.8829C27.829 15.0408 27.2378 14.2698 26.5478 13.5926C20.6717 7.71556 25.0078 0.849701 25.739 0.50092L25.7463 0.490189C20.9975 3.27068 19.3863 8.41799 19.238 10.9926C19.4585 10.9775 19.6771 10.959 19.9024 10.959C21.5874 10.9621 23.2415 11.4113 24.6965 12.261C26.1516 13.1107 27.3556 14.3306 28.1863 15.7965Z" fill="url(#paint3_radial)"/>
<path d="M19.9147 16.9702C19.8834 17.4404 18.222 19.0624 17.641 19.0624C12.2649 19.0624 11.3922 22.3145 11.3922 22.3145C11.6303 25.0531 13.5386 27.3087 15.8454 28.5019C15.9507 28.5565 16.0576 28.6058 16.1644 28.6541C16.3494 28.736 16.5345 28.8118 16.7195 28.8814C17.5112 29.1616 18.3404 29.3216 19.1795 29.356C28.6025 29.798 30.4278 18.0877 23.6278 14.6897C25.232 14.4809 26.8565 14.8754 28.1864 15.7965C27.3557 14.3305 26.1516 13.1107 24.6966 12.261C23.2415 11.4113 21.5874 10.962 19.9025 10.9589C19.6781 10.9589 19.4586 10.9775 19.2381 10.9926C17.3416 11.123 15.5285 11.8218 14.0351 12.998C14.3234 13.2419 14.6488 13.5677 15.3342 14.2433C16.6171 15.5072 19.9073 16.8165 19.9147 16.9702Z" fill="url(#paint4_radial)"/>
<path d="M19.9147 16.9702C19.8834 17.4404 18.222 19.0624 17.641 19.0624C12.2649 19.0624 11.3922 22.3145 11.3922 22.3145C11.6303 25.0531 13.5386 27.3087 15.8454 28.5019C15.9507 28.5565 16.0576 28.6058 16.1644 28.6541C16.3494 28.736 16.5345 28.8118 16.7195 28.8814C17.5112 29.1616 18.3404 29.3216 19.1795 29.356C28.6025 29.798 30.4278 18.0877 23.6278 14.6897C25.232 14.4809 26.8565 14.8754 28.1864 15.7965C27.3557 14.3305 26.1516 13.1107 24.6966 12.261C23.2415 11.4113 21.5874 10.962 19.9025 10.9589C19.6781 10.9589 19.4586 10.9775 19.2381 10.9926C17.3416 11.123 15.5285 11.8218 14.0351 12.998C14.3234 13.2419 14.6488 13.5677 15.3342 14.2433C16.6171 15.5072 19.9073 16.8165 19.9147 16.9702Z" fill="url(#paint5_radial)"/>
<path d="M13.1537 12.3693C13.3069 12.4668 13.4332 12.5517 13.544 12.6283C13.1132 11.1205 13.0948 9.52469 13.4908 8.00734C11.7469 8.85218 10.1973 10.0498 8.94006 11.5244C9.03226 11.522 11.7747 11.4727 13.1537 12.3693Z" fill="url(#paint6_radial)"/>
<path d="M1.14836 21.0531C2.60738 29.6745 10.421 36.257 19.2918 36.5082C27.5015 36.7404 32.7464 31.9745 34.9132 27.3252C36.748 23.307 36.9587 18.7352 35.5015 14.5652V14.5472C35.5015 14.5331 35.4986 14.5248 35.5015 14.5292L35.5049 14.5609C36.1757 18.9399 33.9484 23.1823 30.4664 26.0511L30.4557 26.0755C23.6713 31.6009 17.1786 29.4092 15.8645 28.5145C15.7727 28.4706 15.681 28.4249 15.5893 28.3774C11.6337 26.4867 9.99958 22.8828 10.3498 19.7921C9.41085 19.8059 8.48801 19.5472 7.69311 19.0472C6.89821 18.5472 6.26538 17.8274 5.87128 16.975C6.90963 16.3389 8.09358 15.9793 9.31032 15.9304C10.527 15.8816 11.736 16.1451 12.822 16.696C15.061 17.7124 17.6087 17.8125 19.9206 16.975C19.9132 16.8213 16.623 15.5116 15.3401 14.2482C14.6547 13.5726 14.3293 13.2472 14.041 13.0028C13.8852 12.8708 13.7224 12.7474 13.5532 12.6331C13.441 12.5565 13.3147 12.4735 13.163 12.374C11.784 11.4774 9.04153 11.5267 8.9508 11.5292H8.94202C8.19275 10.5794 8.24543 7.44769 8.28836 6.79354C8.0667 6.88262 7.85511 6.99496 7.65714 7.12866C6.9957 7.60074 6.37735 8.13045 5.80933 8.71159C5.15975 9.366 4.56613 10.0737 4.0347 10.8272V10.8301V10.8267C2.81921 12.5499 1.95709 14.4968 1.49811 16.555C1.48884 16.5935 0.817137 19.5301 1.14836 21.0531Z" fill="url(#paint7_radial)"/>
<path d="M26.5488 13.5926C27.239 14.2705 27.8302 15.0424 28.3049 15.8853C28.4088 15.9639 28.5059 16.0419 28.5883 16.1175C32.8746 20.0687 30.6288 25.6541 30.4615 26.0517C33.9434 23.1829 36.1688 18.9405 35.5 14.5614C33.3615 9.22972 29.7366 7.08094 26.7761 2.40191C26.6263 2.16533 26.4766 1.92825 26.3307 1.67801C26.2473 1.53508 26.1805 1.4063 26.1224 1.28777C25.9997 1.04999 25.905 0.798696 25.8405 0.538986C25.8406 0.527002 25.8363 0.515405 25.8283 0.506408C25.8204 0.497411 25.8095 0.491643 25.7976 0.490206C25.7859 0.487009 25.7736 0.487009 25.762 0.490206C25.7595 0.490206 25.7556 0.494596 25.7527 0.495571C25.7498 0.496547 25.7434 0.500937 25.739 0.502888C25.0078 0.849718 20.6717 7.71557 26.5488 13.5926Z" fill="url(#paint8_radial)"/>
<path d="M28.5853 16.115C28.5029 16.0394 28.4058 15.9614 28.3019 15.8828C28.2634 15.8541 28.2253 15.8253 28.1844 15.7965C26.8545 14.8754 25.23 14.4809 23.6258 14.6897C30.4258 18.0897 28.6014 29.798 19.1775 29.356C18.3384 29.3216 17.5092 29.1616 16.7175 28.8814C16.5325 28.8121 16.3474 28.7363 16.1624 28.6541C16.0556 28.6053 15.9487 28.5565 15.8434 28.5019L15.8566 28.5102C17.1707 29.4072 23.6614 31.5989 30.4478 26.0711L30.4585 26.0468C30.6278 25.6516 32.8736 20.0648 28.5853 16.115Z" fill="url(#paint9_radial)"/>
<path d="M11.3922 22.3146C11.3922 22.3146 12.2649 19.0624 17.641 19.0624C18.2219 19.0624 19.8849 17.4404 19.9146 16.9702C17.6028 17.8077 15.055 17.7076 12.8161 16.6912C11.7301 16.1403 10.5211 15.8768 9.30439 15.9256C8.08766 15.9745 6.9037 16.3341 5.86536 16.9702C6.25945 17.8226 6.89229 18.5424 7.68718 19.0424C8.48208 19.5424 9.40492 19.8011 10.3439 19.7873C9.99365 22.8785 11.6278 26.4824 15.5834 28.3726C15.6717 28.4151 15.7546 28.4609 15.8454 28.5014C13.5366 27.3087 11.6302 25.0531 11.3922 22.3146Z" fill="url(#paint10_radial)"/>
<path d="M37.3736 13.5741C36.5522 11.5975 34.8858 9.46338 33.581 8.78874C34.5117 10.5912 35.1575 12.527 35.4956 14.5273L35.499 14.559C33.3614 9.22972 29.7366 7.08094 26.7761 2.40191C26.6263 2.16533 26.4766 1.92825 26.3307 1.67801C26.2473 1.53508 26.1805 1.4063 26.1224 1.28777C25.9996 1.04999 25.905 0.798696 25.8405 0.538986C25.8405 0.527002 25.8362 0.515405 25.8283 0.506408C25.8204 0.497411 25.8094 0.491643 25.7975 0.490206C25.7859 0.487009 25.7736 0.487009 25.7619 0.490206C25.7595 0.490206 25.7556 0.494596 25.7527 0.495571C25.7497 0.496547 25.7434 0.500937 25.739 0.502888L25.7463 0.490206C20.9975 3.27069 19.3863 8.41801 19.238 10.9926C19.4585 10.9775 19.677 10.959 19.9024 10.959C21.5874 10.9621 23.2415 11.4113 24.6965 12.261C26.1516 13.1107 27.3556 14.3306 28.1863 15.7965C26.8565 14.8754 25.232 14.481 23.6278 14.6897C30.4278 18.0897 28.6034 29.798 19.1795 29.3561C18.3404 29.3216 17.5112 29.1616 16.7195 28.8814C16.5344 28.8122 16.3494 28.7364 16.1644 28.6541C16.0575 28.6053 15.9507 28.5565 15.8453 28.5019L15.8585 28.5102C15.7668 28.4663 15.6751 28.4206 15.5834 28.3731C15.6717 28.4156 15.7546 28.4614 15.8453 28.5019C13.5366 27.3087 11.6302 25.0531 11.3922 22.3146C11.3922 22.3146 12.2649 19.0624 17.641 19.0624C18.2219 19.0624 19.8849 17.4405 19.9146 16.9702C19.9073 16.8165 16.617 15.5068 15.3341 14.2434C14.6488 13.5678 14.3234 13.2424 14.0351 12.998C13.8793 12.866 13.7165 12.7426 13.5473 12.6283C13.1165 11.1204 13.0981 9.52463 13.4941 8.00728C11.7502 8.85212 10.2006 10.0497 8.94339 11.5244H8.93461C8.18534 10.5746 8.23802 7.44289 8.28095 6.78874C8.05929 6.87783 7.8477 6.99016 7.64973 7.12387C6.98829 7.59594 6.36994 8.12565 5.80193 8.70679C5.15466 9.36305 4.56349 10.0724 4.03461 10.8273V10.8302V10.8268C2.81912 12.55 1.957 14.4969 1.49803 16.5551L1.47266 16.68C1.43705 16.8463 1.27754 17.6912 1.25461 17.8726C1.25461 17.8863 1.25461 17.8585 1.25461 17.8726C1.10871 18.7448 1.01554 19.6249 0.975586 20.5083V20.6058C0.979731 25.3396 2.7595 29.8996 5.96315 33.3847C9.16681 36.8697 13.5612 39.0262 18.278 39.4279C22.9947 39.8296 27.6905 38.4473 31.4374 35.5543C35.1842 32.6612 37.7095 28.4678 38.5141 23.8029C38.5458 23.559 38.5717 23.3175 38.6 23.0712C38.9894 19.8528 38.5678 16.588 37.3736 13.5741ZM35.498 14.5453L35.5014 14.5653L35.498 14.5453Z" fill="url(#paint11_linear)"/>
<defs>
<linearGradient id="paint0_linear" x1="34.8712" y1="6.53118" x2="3.48632" y2="36.8117" gradientUnits="userSpaceOnUse">
<stop offset="0.048" stop-color="#FFF44F"/>
<stop offset="0.111" stop-color="#FFE847"/>
<stop offset="0.225" stop-color="#FFC830"/>
<stop offset="0.368" stop-color="#FF980E"/>
<stop offset="0.401" stop-color="#FF8B16"/>
<stop offset="0.462" stop-color="#FF672A"/>
<stop offset="0.534" stop-color="#FF3647"/>
<stop offset="0.705" stop-color="#E31587"/>
</linearGradient>
<radialGradient id="paint1_radial" cx="0" cy="0" r="1" gradientUnits="userSpaceOnUse" gradientTransform="translate(33.421 4.81706) scale(39.4132)">
<stop offset="0.129" stop-color="#FFBD4F"/>
<stop offset="0.186" stop-color="#FFAC31"/>
<stop offset="0.247" stop-color="#FF9D17"/>
<stop offset="0.283" stop-color="#FF980E"/>
<stop offset="0.403" stop-color="#FF563B"/>
<stop offset="0.467" stop-color="#FF3750"/>
<stop offset="0.71" stop-color="#F5156C"/>
<stop offset="0.782" stop-color="#EB0878"/>
<stop offset="0.86" stop-color="#E50080"/>
</radialGradient>
<radialGradient id="paint2_radial" cx="0" cy="0" r="1" gradientUnits="userSpaceOnUse" gradientTransform="translate(19.019 20.9303) scale(39.4132)">
<stop offset="0.3" stop-color="#960E18"/>
<stop offset="0.351" stop-color="#B11927" stop-opacity="0.74"/>
<stop offset="0.435" stop-color="#DB293D" stop-opacity="0.343"/>
<stop offset="0.497" stop-color="#F5334B" stop-opacity="0.094"/>
<stop offset="0.53" stop-color="#FF3750" stop-opacity="0"/>
</radialGradient>
<radialGradient id="paint3_radial" cx="0" cy="0" r="1" gradientUnits="userSpaceOnUse" gradientTransform="translate(23.7706 -4.12738) scale(28.5532)">
<stop offset="0.132" stop-color="#FFF44F"/>
<stop offset="0.252" stop-color="#FFDC3E"/>
<stop offset="0.506" stop-color="#FF9D12"/>
<stop offset="0.526" stop-color="#FF980E"/>
</radialGradient>
<radialGradient id="paint4_radial" cx="0" cy="0" r="1" gradientUnits="userSpaceOnUse" gradientTransform="translate(14.6596 31.2251) scale(18.7663)">
<stop offset="0.353" stop-color="#3A8EE6"/>
<stop offset="0.472" stop-color="#5C79F0"/>
<stop offset="0.669" stop-color="#9059FF"/>
<stop offset="1" stop-color="#C139E6"/>
</radialGradient>
<radialGradient id="paint5_radial" cx="0" cy="0" r="1" gradientUnits="userSpaceOnUse" gradientTransform="translate(21.1728 17.7001) rotate(-13.5916) scale(9.9498 11.6487)">
<stop offset="0.206" stop-color="#9059FF" stop-opacity="0"/>
<stop offset="0.278" stop-color="#8C4FF3" stop-opacity="0.064"/>
<stop offset="0.747" stop-color="#7716A8" stop-opacity="0.45"/>
<stop offset="0.975" stop-color="#6E008B" stop-opacity="0.6"/>
</radialGradient>
<radialGradient id="paint6_radial" cx="0" cy="0" r="1" gradientUnits="userSpaceOnUse" gradientTransform="translate(18.5215 3.2045) scale(13.5005)">
<stop stop-color="#FFE226"/>
<stop offset="0.121" stop-color="#FFDB27"/>
<stop offset="0.295" stop-color="#FFC82A"/>
<stop offset="0.502" stop-color="#FFA930"/>
<stop offset="0.732" stop-color="#FF7E37"/>
<stop offset="0.792" stop-color="#FF7139"/>
</radialGradient>
<radialGradient id="paint7_radial" cx="0" cy="0" r="1" gradientUnits="userSpaceOnUse" gradientTransform="translate(29.1332 -5.35885) scale(57.6005)">
<stop offset="0.113" stop-color="#FFF44F"/>
<stop offset="0.456" stop-color="#FF980E"/>
<stop offset="0.622" stop-color="#FF5634"/>
<stop offset="0.716" stop-color="#FF3647"/>
<stop offset="0.904" stop-color="#E31587"/>
</radialGradient>
<radialGradient id="paint8_radial" cx="0" cy="0" r="1" gradientUnits="userSpaceOnUse" gradientTransform="translate(24.2785 -2.15589) rotate(83.976) scale(42.2168 27.7065)">
<stop stop-color="#FFF44F"/>
<stop offset="0.06" stop-color="#FFE847"/>
<stop offset="0.168" stop-color="#FFC830"/>
<stop offset="0.304" stop-color="#FF980E"/>
<stop offset="0.356" stop-color="#FF8B16"/>
<stop offset="0.455" stop-color="#FF672A"/>
<stop offset="0.57" stop-color="#FF3647"/>
<stop offset="0.737" stop-color="#E31587"/>
</radialGradient>
<radialGradient id="paint9_radial" cx="0" cy="0" r="1" gradientUnits="userSpaceOnUse" gradientTransform="translate(18.2035 8.20489) scale(35.961)">
<stop offset="0.137" stop-color="#FFF44F"/>
<stop offset="0.48" stop-color="#FF980E"/>
<stop offset="0.592" stop-color="#FF5634"/>
<stop offset="0.655" stop-color="#FF3647"/>
<stop offset="0.904" stop-color="#E31587"/>
</radialGradient>
<radialGradient id="paint10_radial" cx="0" cy="0" r="1" gradientUnits="userSpaceOnUse" gradientTransform="translate(27.6961 10.3096) scale(39.359)">
<stop offset="0.094" stop-color="#FFF44F"/>
<stop offset="0.231" stop-color="#FFE141"/>
<stop offset="0.509" stop-color="#FFAF1E"/>
<stop offset="0.626" stop-color="#FF980E"/>
</radialGradient>
<linearGradient id="paint11_linear" x1="34.4941" y1="6.36923" x2="7.78875" y2="33.0741" gradientUnits="userSpaceOnUse">
<stop offset="0.167" stop-color="#FFF44F" stop-opacity="0.8"/>
<stop offset="0.266" stop-color="#FFF44F" stop-opacity="0.634"/>
<stop offset="0.489" stop-color="#FFF44F" stop-opacity="0.217"/>
<stop offset="0.6" stop-color="#FFF44F" stop-opacity="0"/>
</linearGradient>
</defs>
</svg>
