<svg width="42" height="42" viewBox="0 0 42 42" fill="none" xmlns="http://www.w3.org/2000/svg">
<path d="M40.9981 20.9991C40.9981 23.6254 40.4808 26.226 39.4758 28.6524C38.4707 31.0788 36.9976 33.2835 35.1405 35.1406C33.2835 36.9976 31.0788 38.4708 28.6524 39.4758C26.226 40.4809 23.6254 40.9981 20.9991 40.9981C15.695 40.9981 10.6081 38.8911 6.85759 35.1406C3.10703 31.39 1 26.3032 1 20.9991C1 15.695 3.10703 10.6081 6.85759 6.8576C10.6081 3.10704 15.695 1 20.9991 1C23.6254 1 26.226 1.51729 28.6524 2.52234C31.0788 3.52739 33.2835 5.00051 35.1405 6.8576C36.9976 8.71468 38.4707 10.9194 39.4758 13.3458C40.4808 15.7722 40.9981 18.3728 40.9981 20.9991Z" fill="url(#paint0_linear)"/>
<path fill-rule="evenodd" clip-rule="evenodd" d="M20.9991 1.01865C15.7 1.01865 10.6179 3.12373 6.87079 6.8708C3.12372 10.6179 1.01865 15.7 1.01865 20.9991C1.01865 26.2983 3.12372 31.3804 6.87079 35.1274C10.6179 38.8745 15.7 40.9796 20.9991 40.9796C23.623 40.9796 26.2212 40.4628 28.6453 39.4587C31.0694 38.4545 33.2721 36.9828 35.1274 35.1274C36.9828 33.2721 38.4545 31.0694 39.4587 28.6453C40.4628 26.2212 40.9796 23.623 40.9796 20.9991C40.9796 18.3752 40.4628 15.7771 39.4587 13.3529C38.4545 10.9288 36.9828 8.72615 35.1274 6.8708C33.2721 5.01544 31.0694 3.54369 28.6453 2.53957C26.2212 1.53546 23.623 1.01865 20.9991 1.01865ZM6.84448 6.84449C10.5985 3.09045 15.6901 0.981447 20.9991 0.981445C23.6279 0.981445 26.2309 1.49922 28.6595 2.5052C31.0882 3.51118 33.2949 4.98568 35.1538 6.84449C37.0126 8.7033 38.487 10.91 39.493 13.3387C40.499 15.7673 41.0168 18.3704 41.0168 20.9991C41.0168 23.6279 40.499 26.2309 39.493 28.6595C38.487 31.0882 37.0126 33.2949 35.1538 35.1537C33.2949 37.0126 31.0882 38.4871 28.6595 39.493C26.2309 40.499 23.6279 41.0168 20.9991 41.0168C15.6901 41.0168 10.5985 38.9078 6.84448 35.1537C3.09044 31.3997 0.981445 26.3081 0.981445 20.9991C0.981445 15.6901 3.09044 10.5985 6.84448 6.84449Z" fill="#CDCDCD"/>
<path d="M39.4311 20.9991C39.4311 25.8876 37.4891 30.5758 34.0325 34.0325C30.5758 37.4892 25.8876 39.4311 20.9991 39.4311C16.1106 39.4311 11.4224 37.4892 7.96573 34.0325C4.50907 30.5758 2.56714 25.8876 2.56714 20.9991C2.56714 16.1107 4.50907 11.4224 7.96573 7.96578C11.4224 4.50912 16.1106 2.56718 20.9991 2.56718C25.8876 2.56718 30.5758 4.50912 34.0325 7.96578C37.4891 11.4224 39.4311 16.1107 39.4311 20.9991Z" fill="url(#paint1_radial)"/>
<path d="M20.9991 3.52812C20.8503 3.52812 20.7304 3.64796 20.7304 3.79685V6.89656C20.7304 7.04544 20.8503 7.16528 20.9991 7.16528C21.148 7.16528 21.2679 7.04544 21.2679 6.89656V3.79685C21.2679 3.64796 21.148 3.52812 20.9991 3.52812ZM19.2411 3.63924C19.2233 3.63732 19.205 3.63732 19.1865 3.63946C19.0384 3.65491 18.9316 3.78655 18.9471 3.93462L19.0825 5.23141C19.098 5.37948 19.2296 5.48626 19.3777 5.4708C19.5258 5.45535 19.6326 5.3237 19.6171 5.17562L19.4818 3.87885C19.4682 3.74928 19.3657 3.65133 19.2411 3.63924H19.2411ZM22.7695 3.64051C22.6449 3.65251 22.5423 3.75045 22.5287 3.88L22.3923 5.17668C22.3767 5.32474 22.4835 5.45651 22.6316 5.47208C22.7796 5.48766 22.9113 5.38099 22.9269 5.23292L23.0633 3.93614C23.0788 3.78808 22.972 3.65642 22.824 3.64085C22.8055 3.63894 22.7873 3.63894 22.7695 3.64052V3.64051ZM17.4352 3.90111C17.4173 3.90125 17.3991 3.90303 17.3809 3.90686C17.2353 3.9377 17.1428 4.07981 17.1736 4.22546L17.8156 7.2579C17.8464 7.40355 17.9885 7.49599 18.1342 7.46516C18.2798 7.43433 18.3723 7.29233 18.3415 7.14668L17.6995 4.11413C17.6725 3.98668 17.5604 3.89997 17.4352 3.90095L17.4352 3.90111ZM24.5753 3.90368C24.4501 3.9024 24.3379 3.98919 24.3109 4.11661L23.6667 7.14869C23.6357 7.29433 23.7281 7.43648 23.8737 7.46742C24.0194 7.49838 24.1615 7.406 24.1924 7.26038L24.8366 4.22829C24.8676 4.08266 24.7752 3.94051 24.6296 3.90958C24.6114 3.90575 24.5932 3.90383 24.5753 3.90383L24.5753 3.90368ZM15.7117 4.38707C15.6769 4.38388 15.641 4.38771 15.6056 4.39946C15.464 4.44549 15.387 4.59641 15.433 4.73801L15.8359 5.97808C15.8819 6.11968 16.033 6.19666 16.1746 6.15065C16.3162 6.10462 16.393 5.95358 16.347 5.81199L15.9441 4.57193C15.9096 4.46573 15.8161 4.39592 15.7117 4.38705V4.38707ZM26.289 4.38771C26.1847 4.39659 26.0911 4.46639 26.0566 4.57258L25.6535 5.81254C25.6074 5.95412 25.6844 6.10518 25.8259 6.1512C25.9675 6.19723 26.1186 6.1203 26.1646 5.97874L26.5677 4.73867C26.6138 4.59708 26.5368 4.44603 26.3953 4.40001C26.3599 4.38852 26.3238 4.38475 26.289 4.38768V4.38771ZM14.0073 5.01076C13.9724 5.0114 13.9371 5.01906 13.9031 5.03419C13.7671 5.09465 13.7062 5.25282 13.7667 5.38886L15.0257 8.22135C15.0861 8.35738 15.2443 8.41821 15.3803 8.35774C15.5163 8.29728 15.5773 8.13912 15.5168 8.00307L14.2577 5.17059C14.2124 5.06855 14.1121 5.00873 14.0073 5.01076ZM28.0126 5.02027C27.9079 5.01836 27.8075 5.07779 27.762 5.17974L26.4992 8.0105C26.4385 8.14646 26.4992 8.30474 26.6351 8.3654C26.7711 8.42605 26.9294 8.36543 26.99 8.22947L28.2528 5.39873C28.3135 5.26276 28.2529 5.10448 28.1169 5.04382C28.0829 5.02869 28.0475 5.02103 28.0126 5.02026V5.02027ZM12.4254 5.8478C12.3738 5.84397 12.3206 5.85546 12.2723 5.88342C12.1433 5.95786 12.0995 6.12158 12.1739 6.25051L12.8258 7.3797C12.9003 7.50864 13.064 7.55248 13.1929 7.47804C13.3219 7.4036 13.3657 7.2399 13.2913 7.11097L12.6394 5.98178C12.5928 5.90119 12.5114 5.85383 12.4254 5.84781V5.8478ZM29.5729 5.8478C29.4869 5.85355 29.4056 5.90117 29.3591 5.98176L28.707 7.11095C28.6326 7.23988 28.6766 7.40358 28.8055 7.47802C28.9344 7.55246 29.0981 7.50861 29.1726 7.37968L29.8245 6.25049C29.8989 6.12156 29.8551 5.95784 29.7261 5.8834C29.6778 5.8555 29.6245 5.84421 29.5729 5.84778V5.8478ZM10.8892 6.80591C10.8375 6.80783 10.7857 6.82443 10.7405 6.85718C10.62 6.9446 10.5934 7.11199 10.6808 7.2325L12.5009 9.74152C12.5883 9.86203 12.7558 9.88867 12.8763 9.80127C12.9968 9.71385 13.0235 9.54646 12.936 9.42595L11.1158 6.91694C11.0612 6.84162 10.9753 6.803 10.8892 6.80594V6.80591ZM31.1283 6.81958C31.0422 6.81639 30.9563 6.85501 30.9016 6.93023L29.078 9.4368C28.9904 9.55719 29.0169 9.72465 29.1373 9.81224C29.2577 9.89982 29.4251 9.87346 29.5127 9.75312L31.3362 7.24654C31.4238 7.12614 31.3973 6.95869 31.2769 6.8711C31.2318 6.83829 31.18 6.82143 31.1283 6.81958ZM9.51609 7.95746C9.4475 7.95363 9.3775 7.97655 9.32218 8.02636C9.21152 8.12597 9.20263 8.2952 9.30226 8.40586L10.1747 9.37499C10.2743 9.48565 10.4435 9.49454 10.5542 9.3949C10.6648 9.2953 10.6737 9.12595 10.5741 9.0153L9.70179 8.04628C9.65199 7.99093 9.5847 7.96104 9.51609 7.95743V7.95746ZM32.4842 7.95938C32.4156 7.96321 32.3483 7.9929 32.2985 8.04822L31.4261 9.01713C31.3264 9.12777 31.3353 9.29711 31.4459 9.39674C31.5566 9.49636 31.7258 9.48742 31.8254 9.37681L32.698 8.40791C32.7976 8.29726 32.7886 8.12792 32.678 8.0283C32.6227 7.97851 32.5528 7.95582 32.4842 7.95941L32.4842 7.95938ZM8.20006 9.2216C8.13146 9.22543 8.06429 9.25512 8.01448 9.31044C7.91488 9.4211 7.92379 9.59032 8.03442 9.68993L10.3381 11.7638C10.4488 11.8634 10.618 11.8545 10.7176 11.7439C10.8172 11.6332 10.8084 11.464 10.6978 11.3644L8.39392 9.29052C8.33857 9.24072 8.26861 9.21802 8.20001 9.22163L8.20006 9.2216ZM33.8066 9.23066C33.738 9.22683 33.6679 9.24969 33.6125 9.29945L31.3074 11.3717C31.1967 11.4712 31.1876 11.6404 31.2871 11.7512C31.3866 11.8619 31.556 11.8709 31.6667 11.7713L33.972 9.69911C34.0827 9.59958 34.0917 9.43034 33.9921 9.31962C33.9423 9.26427 33.8752 9.23431 33.8066 9.23066H33.8066ZM7.10566 10.6288C7.01951 10.6256 6.93362 10.6644 6.87893 10.7397C6.79142 10.8601 6.81796 11.0275 6.93843 11.115L7.99327 11.8814C8.11371 11.9689 8.28107 11.9425 8.36858 11.822C8.45609 11.7016 8.42962 11.5341 8.30921 11.4466L7.25436 10.6802C7.20922 10.6474 7.15737 10.6307 7.10568 10.6288L7.10566 10.6288ZM34.8999 10.6386C34.8482 10.6405 34.7964 10.657 34.7513 10.6899L33.6959 11.4556C33.5754 11.543 33.5488 11.7105 33.6362 11.831C33.7236 11.9515 33.891 11.978 34.0115 11.8906L35.0669 11.1249C35.1874 11.0375 35.214 10.8701 35.1266 10.7496C35.0719 10.6743 34.9861 10.6357 34.8999 10.6386V10.6386ZM6.08295 12.1299C5.99696 12.1356 5.91561 12.1833 5.86908 12.2638C5.79464 12.3928 5.8385 12.5565 5.96743 12.6309L8.65181 14.1808C8.78074 14.2552 8.94445 14.2113 9.0189 14.0824C9.09334 13.9535 9.04947 13.7898 8.92054 13.7153L6.23615 12.1655C6.18782 12.1376 6.13454 12.1263 6.08295 12.1298V12.1299ZM35.9153 12.1299C35.8638 12.126 35.8105 12.1375 35.7621 12.1655L33.0778 13.7154C32.9488 13.7898 32.905 13.9535 32.9794 14.0824C33.0539 14.2114 33.2175 14.2552 33.3465 14.1808L36.031 12.6309C36.1599 12.5565 36.2038 12.3928 36.1293 12.2639C36.0828 12.1833 36.0013 12.1359 35.9153 12.1299V12.1299ZM5.30969 13.7298C5.20497 13.7273 5.10454 13.7872 5.05906 13.8892C4.9984 14.0252 5.05902 14.1834 5.19499 14.2441L6.38588 14.7753C6.52185 14.8359 6.68015 14.7753 6.74079 14.6394C6.80144 14.5034 6.74071 14.3451 6.60474 14.2845L5.41397 13.7533C5.38 13.7381 5.34459 13.7305 5.30969 13.7298ZM36.6938 13.7409C36.6589 13.7415 36.6234 13.7492 36.5894 13.7643L35.3983 14.2946C35.2623 14.3552 35.2015 14.5133 35.262 14.6494C35.3226 14.7854 35.4809 14.8462 35.6169 14.7856L36.808 14.2552C36.9441 14.1947 37.0048 14.0365 36.9442 13.9005C36.8988 13.7985 36.7985 13.7388 36.6938 13.7409ZM4.62054 15.4021C4.51616 15.4108 4.4226 15.4805 4.38801 15.5867C4.34191 15.7283 4.41864 15.8794 4.56022 15.9255L7.50743 16.8858C7.64897 16.9319 7.80008 16.8551 7.8462 16.7136C7.8923 16.572 7.81556 16.4209 7.67397 16.3748L4.72678 15.4145C4.69142 15.4029 4.65533 15.3992 4.62054 15.4021V15.4021ZM37.3817 15.4136C37.3469 15.4104 37.311 15.4142 37.2756 15.426L34.3277 16.3842C34.1861 16.4302 34.1092 16.5813 34.1552 16.7228C34.2013 16.8644 34.3523 16.9413 34.4939 16.8953L37.4417 15.9371C37.5832 15.891 37.6603 15.74 37.6142 15.5984C37.5797 15.4922 37.4861 15.4224 37.3817 15.4135V15.4136ZM4.19118 17.1575C4.06599 17.1562 3.9537 17.2431 3.92662 17.3705C3.89565 17.5161 3.98804 17.6583 4.13365 17.6892L5.4091 17.9603C5.55472 17.9912 5.69685 17.8989 5.72781 17.7533C5.75877 17.6076 5.6664 17.4655 5.52079 17.4345L4.24547 17.1635C4.22727 17.1597 4.20906 17.1577 4.19118 17.1577V17.1575ZM37.8077 17.16C37.7898 17.1602 37.7718 17.1626 37.7536 17.1658L36.4781 17.4367C36.3325 17.4677 36.2402 17.6097 36.2711 17.7553C36.302 17.9009 36.4442 17.9934 36.5898 17.9624L37.8651 17.6915C38.0107 17.6605 38.1032 17.5184 38.0723 17.3728C38.0452 17.2454 37.9329 17.1587 37.8077 17.1597L37.8077 17.16ZM3.8662 18.9232C3.74158 18.9351 3.63899 19.0329 3.62531 19.1624C3.60967 19.3105 3.71618 19.4423 3.86423 19.4579L6.94677 19.7838C7.09482 19.7995 7.22665 19.6929 7.2423 19.5448C7.25794 19.3968 7.15131 19.2649 7.00325 19.2493L3.92072 18.9234C3.9022 18.9215 3.88401 18.9215 3.8662 18.9232V18.9232ZM38.135 18.9463C38.1172 18.9444 38.0989 18.9444 38.0803 18.9466L34.9974 19.2683C34.8494 19.2837 34.7426 19.4154 34.7581 19.5635C34.7735 19.7115 34.9051 19.8183 35.0532 19.8028L38.1361 19.4811C38.2842 19.4657 38.3909 19.334 38.3755 19.1859C38.362 19.0564 38.2596 18.9584 38.135 18.9463L38.135 18.9463ZM3.814 20.7306C3.66512 20.7306 3.54529 20.8504 3.54529 20.9993C3.54529 21.1482 3.66512 21.268 3.814 21.268H5.11788C5.26675 21.268 5.38671 21.1482 5.38671 20.9993C5.38671 20.8504 5.26675 20.7306 5.11788 20.7306H3.814ZM36.8804 20.7306C36.7316 20.7306 36.6117 20.8504 36.6117 20.9993C36.6117 21.1482 36.7316 21.268 36.8804 21.268H38.1843C38.3332 21.268 38.453 21.1482 38.453 20.9993C38.453 20.8504 38.3332 20.7306 38.1843 20.7306H36.8804ZM6.99967 22.1955C6.98186 22.1936 6.96365 22.1936 6.94513 22.1958L3.86213 22.5175C3.71405 22.5329 3.60732 22.6646 3.62275 22.8127C3.6382 22.9607 3.76984 23.0675 3.91791 23.0521L7.00093 22.7303C7.14901 22.7149 7.25575 22.5832 7.24031 22.4351C7.22677 22.3056 7.12426 22.2076 6.99965 22.1955H6.99967ZM34.997 22.2146C34.8724 22.2265 34.7698 22.3243 34.7561 22.4538C34.7405 22.6019 34.847 22.7337 34.995 22.7494L38.0776 23.0753C38.2256 23.0909 38.3574 22.9843 38.3731 22.8362C38.3887 22.6882 38.2821 22.5563 38.1341 22.5407L35.0516 22.2148C35.0331 22.2129 35.0148 22.2129 34.997 22.2146L34.997 22.2146ZM5.46291 24.03C5.44503 24.0302 5.42684 24.0319 5.40865 24.0358L4.1332 24.3067C3.98757 24.3377 3.89524 24.4798 3.92617 24.6254C3.95713 24.771 4.09927 24.8634 4.2449 24.8324L5.52035 24.5616C5.66597 24.5307 5.75829 24.3885 5.72736 24.2429C5.70029 24.1155 5.58812 24.0288 5.46293 24.0298L5.46291 24.03ZM36.535 24.0326C36.4098 24.0313 36.2977 24.1181 36.2706 24.2455C36.2396 24.3911 36.3319 24.5333 36.4775 24.5642L37.753 24.8353C37.8986 24.8662 38.0407 24.774 38.0717 24.6284C38.1026 24.4827 38.0102 24.3405 37.8646 24.3095L36.5893 24.0385C36.5711 24.0346 36.5529 24.0327 36.535 24.0327L36.535 24.0326ZM7.61065 25.091C7.57586 25.0878 7.53992 25.0917 7.50452 25.1034L4.55664 26.0616C4.41504 26.1077 4.33814 26.2587 4.38417 26.4003C4.4302 26.5419 4.58124 26.6188 4.72283 26.5728L7.67062 25.6145C7.81221 25.5685 7.88921 25.4174 7.84318 25.2759C7.80865 25.1697 7.71502 25.0998 7.61065 25.091V25.091ZM34.3848 25.1005C34.2804 25.1093 34.1868 25.179 34.1522 25.2852C34.1061 25.4267 34.1828 25.5778 34.3244 25.624L37.2716 26.5843C37.4132 26.6304 37.5643 26.5536 37.6104 26.412C37.6566 26.2705 37.5798 26.1194 37.4382 26.0733L34.491 25.1129C34.4556 25.1014 34.4195 25.0976 34.3848 25.1006V25.1005ZM6.48575 27.1898C6.45083 27.1905 6.41548 27.198 6.38148 27.2131L5.19024 27.7435C5.05423 27.804 4.99352 27.9623 5.05407 28.0983C5.11466 28.2343 5.27286 28.295 5.40886 28.2344L6.6001 27.7042C6.73611 27.6436 6.79682 27.4854 6.73627 27.3494C6.69088 27.2474 6.59047 27.1877 6.48575 27.1898V27.1898ZM35.5082 27.2C35.4035 27.1975 35.3031 27.2574 35.2576 27.3594C35.197 27.4954 35.2576 27.6536 35.3935 27.7143L36.5843 28.2455C36.7203 28.3061 36.8786 28.2455 36.9392 28.1095C36.9999 27.9736 36.9393 27.8153 36.8033 27.7546L35.6125 27.2235C35.5786 27.2083 35.5432 27.2007 35.5082 27.2V27.2ZM8.80503 27.7824C8.75344 27.7785 8.70016 27.79 8.65181 27.818L5.96743 29.3678C5.8385 29.4423 5.79464 29.606 5.86908 29.7349C5.94352 29.8638 6.10722 29.9077 6.23615 29.8333L8.92054 28.2835C9.04947 28.2091 9.09333 28.0453 9.0189 27.9163C8.97235 27.8358 8.89102 27.7884 8.80503 27.7824V27.7824ZM33.1934 27.7824C33.1074 27.7881 33.0259 27.8357 32.9794 27.9163C32.905 28.0453 32.9488 28.2091 33.0778 28.2835L35.7621 29.8333C35.8911 29.9077 36.0549 29.8638 36.1293 29.7349C36.2038 29.606 36.1599 29.4423 36.031 29.3678L33.3465 27.818C33.2981 27.7901 33.245 27.7788 33.1934 27.7823V27.7824ZM8.13546 30.0567C8.08374 30.0587 8.03197 30.0753 7.98678 30.1081L6.93146 30.8738C6.81095 30.9613 6.7843 31.1287 6.8717 31.2492C6.95913 31.3697 7.12653 31.3963 7.24703 31.3089L8.30245 30.5431C8.42297 30.4557 8.44961 30.2883 8.36221 30.1678C8.30755 30.0925 8.22161 30.0538 8.13546 30.0567V30.0567ZM33.8565 30.0658C33.7703 30.0626 33.6844 30.1014 33.6297 30.1767C33.5422 30.2971 33.5687 30.4646 33.6892 30.5521L34.7441 31.3185C34.8645 31.406 35.0319 31.3795 35.1194 31.259C35.2069 31.1386 35.1804 30.9712 35.06 30.8837L34.0052 30.1173C33.96 30.0845 33.9082 30.0676 33.8565 30.0658L33.8565 30.0658ZM10.5256 30.1586C10.457 30.1548 10.387 30.1776 10.3317 30.2274L8.02645 32.2996C7.91573 32.3991 7.90672 32.5684 8.00626 32.6791C8.10579 32.7898 8.27504 32.7988 8.38576 32.6993L10.691 30.627C10.8017 30.5275 10.8107 30.3583 10.7112 30.2475C10.6614 30.1922 10.5942 30.1622 10.5256 30.1586ZM31.4663 30.166C31.3977 30.1698 31.3304 30.1995 31.2806 30.2548C31.181 30.3655 31.1899 30.5347 31.3006 30.6343L33.6043 32.7082C33.7149 32.8078 33.8843 32.7989 33.9839 32.6883C34.0835 32.5776 34.0746 32.4084 33.964 32.3088L31.6601 30.2349C31.6048 30.1851 31.5349 30.1624 31.4663 30.166V30.166ZM12.7125 32.1347C12.6264 32.1315 12.5404 32.17 12.4857 32.2453L10.6622 34.7519C10.5746 34.8723 10.601 35.0397 10.7213 35.1273C10.8417 35.2149 11.0092 35.1885 11.0968 35.0681L12.9202 32.5615C13.0078 32.4412 12.9815 32.2737 12.8611 32.1861C12.816 32.1533 12.7642 32.1365 12.7125 32.1347ZM29.2708 32.1459C29.2191 32.1478 29.1673 32.1644 29.1221 32.1972C29.0016 32.2846 28.9749 32.452 29.0623 32.5725L30.8824 35.0815C30.9698 35.202 31.1372 35.2287 31.2578 35.1413C31.3783 35.0538 31.4049 34.8865 31.3175 34.7659L29.4974 32.2569C29.4428 32.1816 29.3569 32.143 29.2708 32.1459V32.1459ZM10.3586 32.533C10.29 32.5369 10.2227 32.5666 10.1729 32.6219L9.30049 33.5908C9.20086 33.7014 9.20968 33.8708 9.32034 33.9704C9.43098 34.07 9.60021 34.0611 9.69982 33.9504L10.5724 32.9815C10.672 32.8709 10.6631 32.7015 10.5524 32.6019C10.4971 32.5521 10.4272 32.5294 10.3586 32.533L10.3586 32.533ZM31.6381 32.5343C31.5695 32.5305 31.4996 32.5534 31.4443 32.6032C31.3336 32.7028 31.3247 32.8721 31.4243 32.9827L32.2966 33.9518C32.3962 34.0625 32.5654 34.0714 32.6761 33.9718C32.7867 33.8722 32.7956 33.7028 32.696 33.5922L31.8237 32.6231C31.7739 32.5678 31.7066 32.5379 31.638 32.5343L31.6381 32.5343ZM15.2589 33.6092C15.1542 33.6067 15.0539 33.6666 15.0084 33.7686L13.7455 36.5993C13.6848 36.7353 13.7454 36.8936 13.8814 36.9542C14.0174 37.0149 14.1756 36.9543 14.2363 36.8183L15.4992 33.9876C15.5599 33.8516 15.4992 33.6933 15.3633 33.6327C15.3293 33.6175 15.2938 33.6099 15.2589 33.6092ZM26.7224 33.617C26.6874 33.6177 26.652 33.6252 26.618 33.6403C26.482 33.7008 26.4211 33.859 26.4816 33.995L27.7405 36.8275C27.801 36.9634 27.9593 37.0243 28.0953 36.9639C28.2313 36.9034 28.2922 36.7453 28.2317 36.6092L26.9727 33.7767C26.9274 33.6747 26.8271 33.615 26.7224 33.617ZM13.0397 34.4844C12.9537 34.4902 12.8724 34.5378 12.8258 34.6184L12.1739 35.7476C12.0995 35.8765 12.1433 36.0402 12.2723 36.1147C12.4012 36.1891 12.5649 36.1453 12.6394 36.0163L13.2913 34.8871C13.3657 34.7582 13.3219 34.5945 13.1929 34.52C13.1446 34.4921 13.0913 34.4808 13.0397 34.4844V34.4844ZM28.9586 34.4844C28.907 34.4806 28.8538 34.4922 28.8055 34.5201C28.6766 34.5945 28.6327 34.7582 28.7071 34.8871L29.3591 36.0163C29.4335 36.1453 29.5972 36.1891 29.7261 36.1147C29.8551 36.0402 29.8989 35.8765 29.8245 35.7476L29.1726 34.6184C29.126 34.5378 29.0446 34.4905 28.9586 34.4845V34.4844ZM18.0704 34.5249C17.9452 34.5236 17.833 34.6104 17.806 34.7379L17.1618 37.7699C17.1308 37.9156 17.2232 38.0577 17.3688 38.0887C17.5145 38.1196 17.6566 38.0272 17.6875 37.8816L18.3317 34.8496C18.3627 34.7039 18.2703 34.5618 18.1247 34.5308C18.1065 34.527 18.0883 34.5251 18.0704 34.5251L18.0704 34.5249ZM23.9184 34.5268C23.9005 34.527 23.8824 34.5287 23.8642 34.5326C23.7186 34.5634 23.6262 34.7054 23.657 34.8511L24.2989 37.8836C24.3298 38.0293 24.4719 38.1217 24.6175 38.0909C24.7632 38.06 24.8556 37.9179 24.8248 37.7723L24.1827 34.7399C24.1557 34.6125 24.0436 34.5258 23.9184 34.5268L23.9184 34.5268ZM20.9991 34.8327C20.8503 34.8327 20.7304 34.9525 20.7304 35.1014V38.2011C20.7304 38.35 20.8503 38.4698 20.9991 38.4698C21.148 38.4698 21.2679 38.35 21.2679 38.2011V35.1014C21.2679 34.9525 21.148 34.8327 20.9991 34.8327ZM16.0662 35.8343C15.9619 35.8432 15.8682 35.913 15.8337 36.0192L15.4307 37.2592C15.3846 37.4008 15.4616 37.5519 15.6031 37.5979C15.7447 37.6439 15.8958 37.5669 15.9418 37.4253L16.3448 36.1854C16.3909 36.0438 16.3139 35.8927 16.1724 35.8467C16.137 35.8352 16.101 35.8314 16.0662 35.8343V35.8343ZM25.93 35.8349C25.8952 35.8317 25.8592 35.8356 25.8239 35.8472C25.6823 35.8933 25.6052 36.0443 25.6512 36.1859L26.0542 37.426C26.1002 37.5676 26.2513 37.6444 26.3928 37.5984C26.5344 37.5524 26.6114 37.4015 26.5654 37.2599L26.1624 36.0198C26.1279 35.9136 26.0343 35.8438 25.93 35.835V35.8349ZM19.3123 36.5256C19.1877 36.5376 19.085 36.6354 19.0714 36.765L18.9351 38.0618C18.9196 38.2098 19.0262 38.3415 19.1743 38.3571C19.3224 38.3726 19.4541 38.266 19.4697 38.1179L19.606 36.8212C19.6216 36.6732 19.5149 36.5414 19.3668 36.5258C19.3483 36.5239 19.3301 36.5239 19.3123 36.5256L19.3123 36.5256ZM22.6752 36.5269C22.6574 36.525 22.6391 36.525 22.6205 36.5271C22.4725 36.5425 22.3657 36.6742 22.3811 36.8223L22.5166 38.1192C22.5321 38.2672 22.6637 38.3739 22.8118 38.3584C22.9599 38.343 23.0666 38.2113 23.0512 38.0633L22.9158 36.7665C22.9023 36.6369 22.7998 36.539 22.6751 36.5269L22.6752 36.5269Z" fill="#F4F2F3"/>
<g opacity="0.409" filter="url(#filter0_f)">
<path d="M33.5948 10.2502L18.8921 18.7925L9.59595 33.4273L23.1954 23.3543L33.5948 10.2502Z" fill="black"/>
</g>
<path d="M23.1063 23.2057L18.892 18.7924L33.8417 8.73578L23.1063 23.2057Z" fill="#FF5150"/>
<path d="M23.1062 23.2055L18.8919 18.7921L8.15659 33.2621L23.1062 23.2055Z" fill="#F1F1F1"/>
<path opacity="0.243" d="M8.15662 33.2623L23.1062 23.2057L33.8416 8.73574L8.15662 33.2623Z" fill="black"/>
<defs>
<filter id="filter0_f" x="8.92262" y="9.57687" width="25.3455" height="24.5238" filterUnits="userSpaceOnUse" color-interpolation-filters="sRGB">
<feFlood flood-opacity="0" result="BackgroundImageFix"/>
<feBlend mode="normal" in="SourceGraphic" in2="BackgroundImageFix" result="shape"/>
<feGaussianBlur stdDeviation="0.336663" result="effect1_foregroundBlur"/>
</filter>
<linearGradient id="paint0_linear" x1="20.9991" y1="40.9981" x2="20.9991" y2="1" gradientUnits="userSpaceOnUse">
<stop stop-color="#BDBDBD"/>
<stop offset="1" stop-color="white"/>
</linearGradient>
<radialGradient id="paint1_radial" cx="0" cy="0" r="1" gradientUnits="userSpaceOnUse" gradientTransform="translate(21.083 18.3118) scale(19.9992)">
<stop stop-color="#06C2E7"/>
<stop offset="0.25" stop-color="#0DB8EC"/>
<stop offset="0.5" stop-color="#12AEF1"/>
<stop offset="0.75" stop-color="#1F86F9"/>
<stop offset="1" stop-color="#107DDD"/>
</radialGradient>
</defs>
</svg>
